<?xml version="1.0" encoding="UTF-8" standalone="no"?>
<svg
   width="24"
   height="24"
   fill="none"
   version="1.1"
   id="svg16"
   sodipodi:docname="Icon-Fill-message-circle.svg"
   inkscape:version="1.2.1 (9c6d41e410, 2022-07-14)"
   xmlns:inkscape="http://www.inkscape.org/namespaces/inkscape"
   xmlns:sodipodi="http://sodipodi.sourceforge.net/DTD/sodipodi-0.dtd"
   xmlns="http://www.w3.org/2000/svg"
   xmlns:svg="http://www.w3.org/2000/svg">
  <sodipodi:namedview
     id="namedview18"
     pagecolor="#ffffff"
     bordercolor="#000000"
     borderopacity="0.25"
     inkscape:showpageshadow="2"
     inkscape:pageopacity="0.0"
     inkscape:pagecheckerboard="0"
     inkscape:deskcolor="#d1d1d1"
     showgrid="false"
     inkscape:zoom="22.627417"
     inkscape:cx="15.40167"
     inkscape:cy="11.402097"
     inkscape:window-width="1920"
     inkscape:window-height="1011"
     inkscape:window-x="0"
     inkscape:window-y="0"
     inkscape:window-maximized="1"
     inkscape:current-layer="g1306" />
  <mask
     id="a"
     style="mask-type:alpha"
     maskUnits="userSpaceOnUse"
     x="2"
     y="2"
     width="21"
     height="20">
    <path
       fill-rule="evenodd"
       clip-rule="evenodd"
       d="M16 13a1 1 0 1 1 0-2.002A1 1 0 0 1 16 13Zm-4 0a1 1 0 1 1 0-2.002A1 1 0 0 1 12 13Zm-4 0a1 1 0 1 1 0-2.002A1 1 0 0 1 8 13Zm11.07-8.072c-2.283-2.284-5.444-3.303-8.673-2.804-4.077.636-7.457 3.92-8.22 7.987a10.016 10.016 0 0 0 .61 5.765c.099.23.129.446.09.64l-.857 4.287a.999.999 0 0 0 1.176 1.176l4.283-.856c.246-.047.485.022.644.088 1.814.767 3.808.977 5.765.611 4.067-.763 7.35-4.143 7.987-8.22.503-3.228-.52-6.389-2.804-8.674Z"
       fill="#fff"
       id="path2" />
  </mask>
  <g
     mask="url(#a)"
     id="g7"
     style="display:none">
    <path
       fill="url(#b)"
       d="M 0,0 H 24 V 24 H 0 Z"
       id="path5"
       inkscape:label="path5"
       style="display:inline" />
  </g>
  <defs
     id="defs14">
    <linearGradient
       id="b"
       x1="6"
       y1="4"
       x2="18"
       y2="19.5"
       gradientUnits="userSpaceOnUse">
      <stop
         stop-color="#7CB8F7"
         id="stop9" />
      <stop
         offset=".934"
         stop-color="#2A8BF2"
         id="stop11" />
    </linearGradient>
  </defs>
  <g
     inkscape:groupmode="layer"
     id="layer1"
     inkscape:label="vector">
    <g
       id="g1306"
       style="stroke-width:1;stroke-dasharray:none">
      <path
         style="display:inline;fill:none;stroke:#000000;stroke-width:2.5;stroke-linejoin:round;stroke-dasharray:none;stroke-linecap:round;fill-opacity:1"
         d="m 2.8857497,16.292599 c 0,0 -3.1280371,-7.0070331 2.6353101,-11.8271259 5.7633472,-4.82009267 11.5173432,-1.0932305 11.5173432,-1.0932305 0,0 5.407929,3.1404256 4.956522,9.2997124 -0.46649,4.595294 -2.81059,6.783316 -6.038577,8.53929 C 14.138213,22.423562 8.6719238,22.06071 7.7558344,21.040641 5.9195359,21.208199 3.559036,22.330114 2.3278053,21.743526 1.4441792,21.203469 2.6997682,18.109575 2.8857497,16.292599 Z"
         id="path311"
         sodipodi:nodetypes="cscccccc" />
      <circle
         style="fill:none;stroke:#000000;stroke-width:2;stroke-linejoin:round;stroke-dasharray:none"
         id="path1127"
         cx="6.9000001"
         cy="11.983948"
         r="1.5" />
      <circle
         style="fill:none;stroke:#000000;stroke-width:2;stroke-linejoin:round;stroke-dasharray:none"
         id="path1127-3"
         cx="11.996536"
         cy="11.983948"
         r="1.5" />
      <circle
         style="fill:none;stroke:#000000;stroke-width:2;stroke-linejoin:round;stroke-dasharray:none"
         id="path1127-3-6"
         cx="17.094"
         cy="11.983948"
         r="1.5" />
    </g>
  </g>
</svg>
